<?xml version="1.0" encoding="UTF-8"?>
<svg width="185px" height="185px" viewBox="0 0 185 185" version="1.1" xmlns="http://www.w3.org/2000/svg" xmlns:xlink="http://www.w3.org/1999/xlink">
    <!-- Generator: Sketch 58 (84663) - https://sketch.com -->
    <title>hand_zan</title>
    <desc>Created with Sketch.</desc>
    <g id="hand_zan" stroke="none" stroke-width="1" fill="none" fill-rule="evenodd">
        <g transform="translate(21.000000, 27.000000)" fill="#000000" fill-rule="nonzero" id="形状">
            <path d="M39.5288211,0.9140625 C35.7616798,0.9140625 32.4770644,3.46434791 31.7861521,7.07082218 C31.7861521,7.07082218 30.6663279,12.7195289 30.0806204,14.7507385 C29.1175918,18.098677 25.7490149,21.7993465 23.3110957,22.980795 C21.4700116,23.8826642 14.6266413,23.8926849 14.2078453,23.8926849 L4.89620843,23.8926849 C2.3328529,23.8926849 0.25,25.9449381 0.25,28.4952235 L0.25,65.3115239 C0.25,67.8507864 2.32172541,69.9140625 4.89620843,69.9140625 L47.7742478,69.9140625 C54.6692089,69.9140625 60.5293189,64.9187098 61.5550658,58.1607041 L65.1441682,34.4665989 C65.9918761,28.9010645 61.6390273,23.9047098 55.9569562,23.9047098 L45.3889311,23.9047098 C45.3889311,23.9047098 46.9589106,18.7530331 47.7540161,10.057011 C48.1515689,5.65188146 45.0025058,1.45418189 40.3775407,0.977193379 C40.094297,0.935106178 39.8120648,0.9140625 39.5288211,0.9140625 Z M18.8226946,65.3005011 L18.8226946,28.3499223 C21.8675645,28.1535153 24.0647264,27.7286347 25.3615779,27.0853015 C28.7827572,25.4058208 33.1568493,20.8042843 34.5376624,15.9953179 C35.1557406,13.8498715 36.211835,8.54287293 36.3372715,7.92058325 C36.6093878,6.53170485 37.9487259,5.50557824 39.5176937,5.50557824 C39.6431302,5.50557824 39.7685667,5.51559901 39.8950148,5.52662191 C42.1022926,5.75509543 43.2848351,7.82839226 43.1280394,9.61008469 C42.3956521,17.6637757 40.9511093,22.5148293 40.9308775,22.5458937 L39.1211525,28.4741799 L55.9569562,28.4741799 C57.3276535,28.4741799 58.58303,29.0443616 59.4833404,30.0704881 C60.3836507,31.0966148 60.7599602,32.4133436 60.5505622,33.7611369 L56.9715756,57.45424 C56.2806633,61.9936477 52.4194446,65.2894782 47.7843636,65.2894783 L18.8226946,65.2894783 L18.8226946,65.3005011 Z"></path>
        </g>
        <path d="M35.1774977,55.4842007 L35.1774977,92.3005011 L25.8962084,92.3005011 L25.8962084,55.4842007 L35.1774977,55.4842007 Z M60.5176937,32.5055782 C60.6431302,32.5055782 60.7685667,32.515599 60.8950148,32.5266219 C63.1022926,32.7550954 64.2848351,34.8283923 64.1280394,36.6100847 C63.3956521,44.6637757 61.9511093,49.5148293 61.9308775,49.5458937 L60.1211525,55.4741799 L76.9569562,55.4741799 C78.3276535,55.4741799 79.58303,56.0443616 80.4833404,57.0704881 C81.3836507,58.0966148 81.7599602,59.4133436 81.5505622,60.7611369 L77.9715756,84.45424 C77.2806633,88.9936477 73.4194446,92.2894782 68.7843636,92.2894783 L39.8226946,92.2894783 L39.8226946,55.3499223 C42.8675645,55.1535153 45.0647264,54.7286347 46.3615779,54.0853015 C49.7827572,52.4058208 54.1568493,47.8042843 55.5376624,42.9953179 C56.1557406,40.8498715 57.211835,35.5428729 57.3372715,34.9205832 C57.6093878,33.5317048 58.9487259,32.5055782 60.5176937,32.5055782 Z" id="矩形-2" fill="#FFFFFF"></path>
    </g>
</svg>