<?xml version="1.0" encoding="UTF-8"?>
<svg width="350px" height="350px" viewBox="0 0 350 350" version="1.1" xmlns="http://www.w3.org/2000/svg" xmlns:xlink="http://www.w3.org/1999/xlink">
    <!-- Generator: Sketch 58 (84663) - https://sketch.com -->
    <title>house</title>
    <desc>Created with Sketch.</desc>
    <defs>
        <linearGradient x1="50%" y1="0%" x2="50%" y2="100%" id="linearGradient-1">
            <stop stop-color="#FFFFFF" stop-opacity="0.5" offset="0%"></stop>
            <stop stop-color="#000000" stop-opacity="0.5" offset="100%"></stop>
        </linearGradient>
        <polygon id="path-2" points="140.0104 149 140.0104 157.731921 135.140625 162.612694 135.140625 149"></polygon>
    </defs>
    <g id="组件" stroke="none" stroke-width="1" fill="none" fill-rule="evenodd">
        <g id="house_black">
            <g id="house">
                <path d="M243.725664,190.734881 L178.556123,125.418157 C176.669508,123.527281 173.611205,123.527281 171.72459,125.418157 L149.615499,147.577181 L149.615499,143.686764 C149.615499,141.01264 147.453003,138.84526 144.784905,138.84526 L130.254479,138.84526 C127.586381,138.84526 125.423886,141.01264 125.423886,143.686764 L125.423886,171.823968 L106.555586,190.734881 C104.668971,192.625757 104.668971,195.690967 106.555586,197.581843 C108.442202,199.472719 111.500504,199.472719 113.38712,197.581843 L175.140357,135.6886 L236.89413,197.581843 C237.83717,198.527012 239.073802,199 240.309897,199 C241.545992,199 242.782088,198.527012 243.725664,197.581843 C245.612279,195.690967 245.612279,192.625757 243.725664,190.734881 Z M140.0104,149 L140.0104,157.731921 L135.140625,162.612694 L135.140625,149 L140.0104,149 Z" id="形状" fill="#696774" fill-rule="nonzero"></path>
                <path d="M179.052785,149.41618 C177.168162,147.52794 174.113088,147.52794 172.228464,149.41618 L118.553959,203.19368 C117.64891,204.100465 117.140625,205.330104 117.140625,206.612388 L117.140625,268.165247 C117.140625,270.835642 119.300838,273 121.966119,273 L161.304082,273 C163.969363,273 166.129576,270.835642 166.129576,268.165247 L166.129576,238.175808 L185.15221,238.175808 L185.15221,268.165247 C185.15221,270.835642 187.312423,273 189.977704,273 L229.315131,273 C231.980412,273 234.140625,270.835642 234.140625,268.165247 L234.140625,206.612388 C234.140625,205.330104 233.63234,204.100465 232.727291,203.19368 L179.052785,149.41618 Z M224.838649,263.658189 L195.15221,263.658189 L195.15221,233.668751 C195.15221,230.998355 192.991997,228.833997 190.326716,228.833997 L161.653094,228.833997 C158.987813,228.833997 156.8276,230.998355 156.8276,233.668751 L156.8276,263.658189 L127.140625,263.658189 L127.140625,208.942747 L175.989637,160 L224.838649,208.942747 L224.838649,263.658189 Z" id="形状" fill="#696774" fill-rule="nonzero"></path>
                <rect id="矩形" fill-opacity="0" fill="#FFFFFF" x="0" y="0" width="350" height="350"></rect>
            </g>
            <path d="M224.838649,263.658189 L195.15221,263.658189 L195.15221,233.668751 C195.15221,230.998355 192.991997,228.833997 190.326716,228.833997 L161.653094,228.833997 C158.987813,228.833997 156.8276,230.998355 156.8276,233.668751 L156.8276,263.658189 L127.140625,263.658189 L127.140625,208.942747 L175.989637,160 L224.838649,208.942747 L224.838649,263.658189 Z" id="路径" fill="#FFFFFF" fill-rule="nonzero"></path>
            <g id="路径" fill-rule="nonzero">
                <use fill="#FFFFFF" xlink:href="#path-2"></use>
                <use fill="url(#linearGradient-1)" xlink:href="#path-2"></use>
                <use fill="#FFFFFF" xlink:href="#path-2"></use>
            </g>
        </g>
    </g>
</svg>