<?xml version="1.0" encoding="UTF-8"?>
<svg width="350px" height="350px" viewBox="0 0 350 350" version="1.1" xmlns="http://www.w3.org/2000/svg" xmlns:xlink="http://www.w3.org/1999/xlink">
    <!-- Generator: Sketch 58 (84663) - https://sketch.com -->
    <title>sun</title>
    <desc>Created with Sketch.</desc>
    <g id="sun" stroke="none" stroke-width="1" fill="none" fill-rule="evenodd">
        <g id="sun-(1)" transform="translate(249.000000, 22.000000)" fill-rule="nonzero">
            <polygon id="路径" fill="#FFD878" points="65 32.5 55.7142857 41.7857143 55.7142857 55.7142857 41.7857143 55.7142857 32.5 65 23.2142857 55.7142857 9.28571429 55.7142857 9.28571429 41.7857143 0 32.5 9.28571429 23.2142857 9.28571429 9.28571429 23.2142857 9.28571429 32.5 0 41.7857143 9.28571429 55.7142857 9.28571429 55.7142857 23.2142857"></polygon>
            <path d="M49,32.5 C49,23.3873016 41.6126984,16 32.5,16 C23.3873016,16 16,23.3873016 16,32.5 C16,41.6126984 23.3873016,49 32.5,49 C41.6126984,49 49,41.6126984 49,32.5 Z" id="路径" fill="#FFE4A9"></path>
            <path d="M32.5,3.2825 L40.8246429,11.6071429 L53.3928571,11.6071429 L53.3928571,24.1753571 L61.7175,32.5 L53.3928571,40.8246429 L53.3928571,53.3928571 L40.8246429,53.3928571 L32.5,61.7175 L24.1753571,53.3928571 L11.6071429,53.3928571 L11.6071429,40.8246429 L3.2825,32.5 L11.6071429,24.1753571 L11.6071429,11.6071429 L24.1753571,11.6071429 L32.5,3.2825 M32.5,0 L23.2142857,9.28571429 L9.28571429,9.28571429 L9.28571429,23.2142857 L0,32.5 L9.28571429,41.7857143 L9.28571429,55.7142857 L23.2142857,55.7142857 L32.5,65 L41.7857143,55.7142857 L55.7142857,55.7142857 L55.7142857,41.7857143 L65,32.5 L55.7142857,23.2142857 L55.7142857,9.28571429 L41.7857143,9.28571429 L32.5,0 Z" id="形状" fill="#4D5152"></path>
            <path d="M32.5,18.3571429 C40.2997857,18.3571429 46.6428571,24.7002143 46.6428571,32.5 C46.6428571,40.2997857 40.2997857,46.6428571 32.5,46.6428571 C24.7002143,46.6428571 18.3571429,40.2997857 18.3571429,32.5 C18.3571429,24.7002143 24.7002143,18.3571429 32.5,18.3571429 M32.5,16 C23.3873016,16 16,23.3873016 16,32.5 C16,41.6126984 23.3873016,49 32.5,49 C41.6126984,49 49,41.6126984 49,32.5 C49,23.3873016 41.6126984,16 32.5,16 Z" id="形状" fill="#4D5152"></path>
        </g>
    </g>
</svg>