<?xml version="1.0" encoding="UTF-8"?>
<svg width="350px" height="350px" viewBox="0 0 350 350" version="1.1" xmlns="http://www.w3.org/2000/svg" xmlns:xlink="http://www.w3.org/1999/xlink">
    <!-- Generator: Sketch 58 (84663) - https://sketch.com -->
    <title>cloud</title>
    <desc>Created with Sketch.</desc>
    <g id="cloud" stroke="none" stroke-width="1" fill="none" fill-rule="evenodd">
        <g transform="translate(271.000000, 23.000000)" fill="#E63946" fill-rule="nonzero" id="形状">
            <path d="M53.5275,51 C50.854375,51 47.7953125,49.8556137 45.881875,47.9550428 C40.9134375,50.2397716 34.4134375,50.2397716 29.8228125,47.1948145 C27.5275,49.4754995 24.4725,50.6198858 21.0275,50.6198858 C14.145625,50.6198858 8.7953125,45.2901998 8.7953125,38.4400571 C8.7953125,31.5899144 14.9134375,25.8801142 21.7953125,26.2602284 C24.1570315,19.2176303 30.7772657,14.4662667 38.23625,14.4605138 C46.645625,14.4605138 53.5275,20.170314 55.4409375,28.164843 C60.7953125,28.9250714 65,33.8705994 65,39.5803996 C65,45.670314 59.645625,51 53.5275,51 L53.5275,51 Z M21.0275,29.3051855 C15.6771875,29.3051855 11.4725,33.4904853 11.4725,38.4400571 C11.4725,43.3855852 15.6771875,47.5749286 20.645625,47.5749286 C23.3228125,47.5749286 26,46.4305423 27.9134375,44.1498573 C28.2953125,43.3855852 29.4409375,43.3855852 29.8228125,43.7697431 C34.4134375,46.8106565 40.145625,46.8106565 45.118125,44.5299715 L45.881875,44.5299715 C46.26375,44.5299715 46.645625,44.5299715 47.0275,44.9100856 C48.5590625,46.8106565 50.854375,47.5749286 53.145625,47.5749286 C57.73625,47.5749286 61.5590625,43.7697431 61.5590625,39.2002854 C61.5590625,34.6348716 58.118125,31.2098002 53.5275,30.829686 C52.76375,30.829686 52.381875,30.0654139 52,29.6852997 C51.2363972,22.7088692 45.2861966,17.4434129 38.23625,17.505471 C31.73625,17.505471 26,22.0749286 24.0865625,28.164843 C24.0865625,28.9250714 23.3228125,29.6852997 22.5590625,29.3051855 L21.0275,29.3051855 L21.0275,29.3051855 Z M17.8425,8.75880114 L17.9725,8.75475737 C21.7953125,8.75475737 25.618125,10.6553283 27.5275,14.0803996 C27.9134375,14.4605138 27.5275,15.6049001 26.76375,15.9850143 C26.76375,15.9850143 26.381875,16.3651284 26,16.3651284 C25.618125,16.3651284 24.854375,15.9850143 24.854375,15.6049001 C23.3228125,13.3201713 20.645625,11.7997146 17.9725,11.7997146 C17.9290589,11.7991625 17.8856721,11.7964633 17.8425,11.791627 L17.5865625,11.7997146 C13,11.7997146 9.5590625,15.6049001 9.5590625,19.7901998 C9.5590625,21.6948145 10.3228125,23.5953853 11.4725,25.1198858 C12.23625,25.8801142 12.23625,26.6403425 11.4725,27.4005709 C11.0865625,27.7847288 10.7046875,27.7847288 10.3228125,27.7847288 C9.9409375,27.7847288 9.5590625,27.7847288 9.1771875,27.4005709 C7.645625,25.1198858 6.5,22.835157 6.5,19.7901998 C6.50253329,16.8201345 7.7068322,13.9762781 9.84103388,11.9006132 C11.9752356,9.82494828 14.8594197,8.69246025 17.8425,8.75880114 Z M3.8228125,13.3201713 L1.5275,13.3201713 C0.707787595,13.2653345 0.0550907437,12.6156473 0,11.7997146 C0,11.0354424 0.76375,10.2752141 1.5275,10.2752141 L3.8228125,10.2752141 C4.5865625,10.2752141 5.354375,11.0354424 5.354375,11.7997146 C5.354375,12.5599429 4.5865625,13.3201713 3.8228125,13.3201713 Z M7.645625,6.85014272 C7.26375,6.85014272 6.881875,6.85014272 6.5,6.47002854 L4.9725,4.56541389 C4.2046875,3.80518554 4.2046875,3.04495718 4.9725,2.28472883 C5.73625,1.52045671 6.5,1.52045671 7.26375,2.28472883 L8.7953125,3.80518554 C9.5590625,4.56541389 9.5590625,5.32968601 8.7953125,6.08991437 C8.4134375,6.47002854 8.0275,6.85014272 7.645625,6.85014272 L7.645625,6.85014272 Z M15.2953125,5.32968601 C14.4733615,5.27483163 13.8188585,4.62334649 13.76375,3.80518554 L13.76375,1.52045671 C13.76375,0.760228354 14.5275,0 15.2953125,0 C16.0590625,0 16.8228125,0.760228354 16.8228125,1.52045671 L16.8228125,3.80518554 C16.8228125,4.56541389 16.0590625,5.32968601 15.2953125,5.32968601 L15.2953125,5.32968601 Z"></path>
        </g>
    </g>
</svg>