<?xml version="1.0" encoding="UTF-8"?>
<svg width="350px" height="350px" viewBox="0 0 350 350" version="1.1" xmlns="http://www.w3.org/2000/svg" xmlns:xlink="http://www.w3.org/1999/xlink">
    <!-- Generator: Sketch 58 (84663) - https://sketch.com -->
    <title>moon</title>
    <desc>Created with Sketch.</desc>
    <g id="moon" stroke="none" stroke-width="1" fill="none" fill-rule="evenodd">
        <g transform="translate(261.000000, 22.000000)" fill="#2F3CF4" fill-rule="nonzero">
            <path d="M42,23.5 C42,20.95 40.05,19 37.5,19 C34.95,19 33,20.95 33,23.5 C33,26.05 34.95,28 37.5,28 C40.05,28 42,26.05 42,23.5" id="路径"></path>
            <path d="M0.315141766,47.4204546 C0.757251827,46.5340909 1.64147195,45.7954546 2.67306207,45.7954546 C12.5468534,44.9090909 20.2100945,36.4886364 20.2100945,26.5909091 C20.2100945,19.7954546 16.525844,13.4431818 10.6310432,9.89772726 C9.74682304,9.30681819 9.15734299,8.42045455 9.15734299,7.3863636 C9.15734299,6.35227264 9.59945305,5.31818175 10.4836732,4.875 C15.6416238,1.62499995 21.5364247,0 27.5785955,0 C45.4103679,0 60,14.625 60,32.5 C60,50.375 45.410368,65 27.5785955,65 C16.673214,65 6.50468255,59.5340909 0.462511764,50.2272727 C-0.126968295,49.3409091 -0.126968295,48.3068182 0.315141766,47.4204546 Z M20.5048345,42.25 C17.4100641,46.2386364 13.1363335,49.1931819 8.1257528,50.6704546 C13.1363335,55.9886364 20.2100945,59.0909091 27.5785955,59.0909091 C42.1682275,59.0909091 54.1051991,47.125 54.1051991,32.5 C54.1051991,17.875 42.1682275,5.90909089 27.5785955,5.90909089 C24.189085,5.90909089 20.7995746,6.49999996 17.7048041,7.82954541 C23.0101249,12.5568182 26.1048953,19.3522727 26.1048953,26.5909091 C26.1048953,30.4318182 25.2206752,33.9772728 23.746975,37.2272728 C26.5470054,38.8522728 30.0838858,38.7045455 32.8839162,36.9318182 C34.2102464,36.0454545 36.1260566,36.3409091 37.0102768,37.8181818 C37.894497,39.1477273 37.5997569,41.0681818 36.1260567,41.9545454 C33.7681364,43.5795455 30.820736,44.3181818 28.0207055,44.3181818 C25.3680452,44.3181818 22.8627548,43.5795455 20.5048345,42.25 L20.5048345,42.25 Z" id="形状"></path>
        </g>
    </g>
</svg>