<?xml version="1.0" encoding="UTF-8"?>
<svg width="185px" height="185px" viewBox="0 0 185 185" version="1.1" xmlns="http://www.w3.org/2000/svg" xmlns:xlink="http://www.w3.org/1999/xlink">
    <!-- Generator: Sketch 58 (84663) - https://sketch.com -->
    <title>hand_gun</title>
    <desc>Created with Sketch.</desc>
    <g id="hand_gun" stroke="none" stroke-width="1" fill="none" fill-rule="evenodd">
        <g id="线性手枪图标" transform="translate(65.500000, 62.000000) scale(-1, 1) translate(-65.500000, -62.000000) translate(21.000000, 27.000000)">
            <path d="M72.4231002,15.3310516 C70.3827062,15.3310516 68.3820785,14.6261906 66.7914233,13.3464361 C66.7762742,13.3341034 66.7601783,13.3217707 66.7440824,13.309438 L51.3346099,1.70247282 C47.9696167,-0.980363107 43.0527878,-0.433929764 40.3581421,2.92910183 C37.6568687,6.30067145 38.1975021,11.2451343 41.5624953,13.9516869 C41.5842722,13.9697116 41.6069958,13.9867877 41.6297195,14.0038637 L47.9800317,18.6570852 L15.5865275,18.6570852 C11.2718752,18.6570852 7.76107193,22.1747498 7.76107193,26.4978344 C7.76107193,27.9768094 8.17199119,29.3618661 8.8858924,30.5439077 L7.82545559,30.5439077 C3.51080331,30.5439077 0,34.0615723 0,38.384657 C0,42.7077416 3.51080331,46.2254062 7.82545559,46.2254062 L30.6627198,46.2254062 C29.9488186,47.4074478 29.5378993,48.7925045 29.5378993,50.2714795 C29.5378993,54.1705091 32.3935042,57.4140084 36.1192353,58.0135672 C35.3684082,59.2164795 34.9338184,60.6385343 34.9338184,62.1592507 C34.9338184,66.4823354 38.4446218,70 42.759274,70 L72.4231002,70 C81.5636868,70 89,62.5491537 89,53.3907032 L89,31.9403485 C89,22.781898 81.5636868,15.3310516 72.4231002,15.3310516 Z M85.2127257,53.3916519 C85.2127257,60.4573385 79.4750051,66.2062727 72.4231002,66.2062727 L42.759274,66.2062727 C40.5323567,66.2062727 38.7210928,64.3914689 38.7210928,62.1601994 C38.7210928,59.9289299 40.5323567,58.1141261 42.759274,58.1141261 L50.4360791,58.1141261 C51.4823136,58.1141261 52.3297163,57.2650674 52.3297163,56.2167881 C52.3297163,55.1685089 51.4823136,54.3194501 50.4360791,54.3194501 L37.3633549,54.3194501 C35.1364376,54.3194501 33.3251737,52.5046463 33.3251737,50.2733769 C33.3251737,48.0421074 35.1364376,46.2273036 37.3633549,46.2273036 L46.6630071,46.2273036 C47.7092416,46.2273036 48.5566442,45.3782448 48.5566442,44.3299656 C48.5566442,43.2816863 47.7092416,42.4326276 46.6630071,42.4326276 L7.82545559,42.4326276 C5.59853828,42.4326276 3.78727433,40.6178238 3.78727433,38.3865543 C3.78727433,36.1552848 5.59853828,34.340481 7.82545559,34.340481 L47.5444952,34.340481 C48.5907297,34.340481 49.4381323,33.4914223 49.4381323,32.443143 C49.4381323,31.3948638 48.5907297,30.545805 47.5444952,30.545805 L15.5865275,30.545805 C13.3596102,30.545805 11.5483463,28.7310012 11.5483463,26.4997318 C11.5483463,24.2684623 13.3596102,22.4536585 15.5865275,22.4536585 L53.7764551,22.4536585 C54.5954531,22.4536585 55.321663,21.9261985 55.5763572,21.1454439 C55.8310514,20.365638 55.5555272,19.5089899 54.8946478,19.0251687 L43.9039777,10.9700203 C42.1940233,9.56788748 41.9270205,7.03588993 43.3122161,5.30646634 C44.705933,3.5666074 47.252875,3.28675005 48.9893403,4.68413948 C49.0054362,4.69647218 49.0205853,4.70880488 49.0366812,4.72113757 L64.4452069,16.3281028 C66.7024224,18.1343685 69.5343567,19.1285736 72.4231002,19.1285736 C79.4750051,19.1285736 85.2127257,24.8775078 85.2127257,31.9431945 L85.2127257,53.3916519 L85.2127257,53.3916519 Z" id="形状" fill="#000000" fill-rule="nonzero"></path>
            <path d="M84.7127257,53.3916519 L84.7127257,31.9431945 C84.7127257,25.1534319 79.1986439,19.6285736 72.4231002,19.6285736 C69.4208896,19.6285736 66.4787592,18.5957698 64.1443687,16.7274727 L48.732582,5.11803009 C48.715889,5.10511119 48.715889,5.10511119 48.703202,5.09509043 C48.6924552,5.08661215 48.6924552,5.08661215 48.6758701,5.07367308 C47.1551924,3.84993483 44.9235027,4.09475231 43.7024681,5.61904177 C42.48926,7.13373802 42.7219249,9.35415653 44.1995479,10.566736 L55.1900026,18.6217266 C56.0254749,19.233365 56.3734286,20.3154746 56.0517041,21.3005094 C55.7299967,22.2866904 54.8121672,22.9536585 53.7764551,22.9536585 L15.5865275,22.9536585 C13.6359714,22.9536585 12.0483463,24.5443864 12.0483463,26.4997318 C12.0483463,28.4550772 13.6359714,30.045805 15.5865275,30.045805 L47.5444952,30.045805 C48.8670908,30.045805 49.9381323,31.1189397 49.9381323,32.443143 C49.9381323,33.7673464 48.8670908,34.840481 47.5444952,34.840481 L7.82545559,34.840481 C5.87489943,34.840481 4.28727433,36.4312089 4.28727433,38.3865543 C4.28727433,40.3418997 5.87489943,41.9326276 7.82545559,41.9326276 L46.6630071,41.9326276 C47.9856027,41.9326276 49.0566442,43.0057623 49.0566442,44.3299656 C49.0566442,45.6541689 47.9856027,46.7273036 46.6630071,46.7273036 L37.3633549,46.7273036 C35.4127988,46.7273036 33.8251737,48.3180314 33.8251737,50.2733769 C33.8251737,52.2287223 35.4127988,53.8194501 37.3633549,53.8194501 L50.4360791,53.8194501 C51.7586748,53.8194501 52.8297163,54.8925848 52.8297163,56.2167881 C52.8297163,57.5409914 51.7586748,58.6141261 50.4360791,58.6141261 L42.759274,58.6141261 C40.8087179,58.6141261 39.2210928,60.204854 39.2210928,62.1601994 C39.2210928,64.1155448 40.8087179,65.7062727 42.759274,65.7062727 L72.4231002,65.7062727 C79.1986439,65.7062727 84.7127257,60.1814145 84.7127257,53.3916519 Z" id="矩形-2" stroke="#979797" fill="#FFFFFF"></path>
        </g>
    </g>
</svg>