<?xml version="1.0" encoding="UTF-8"?>
<svg width="185px" height="185px" viewBox="0 0 185 185" version="1.1" xmlns="http://www.w3.org/2000/svg" xmlns:xlink="http://www.w3.org/1999/xlink">
    <!-- Generator: Sketch 58 (84663) - https://sketch.com -->
    <title>hand_gun_2</title>
    <desc>Created with Sketch.</desc>
    <g id="hand_gun_2" stroke="none" stroke-width="1" fill="none" fill-rule="evenodd">
        <path d="M130.6875,42.5625 L98.5,42.5625 L98.5,51.3125 L62.875,51.3125 L60.6875,56.625 L56.9375,67.5625 L52.25,81.9375 L47.5625,96.3125 L30.375,96.3125 L41.625,62.5625 L44.125,54.75 L38.8125,51.9375 L38.8125,34.75 C38.8125,33.8125 39.4375,32.25 40.375,32.25 L130.6875,32.25 L130.6875,42.5625 Z M129.125,21 C127.25,21 125.6875,22.25 125.375,24.125 L41.625,24.125 C35.6875,24.125 30.6875,29.125 30.6875,35.0625 L30.6875,53.8125 C30.6875,56 31.9375,57.875 33.8125,58.8125 L21.3125,96.3125 C20.6875,98.1875 21,100.0625 22.25,101.3125 C23.1875,102.875 25.0625,103.5 26.9375,103.5 L50.0625,103.5 C52.5625,103.5 54.75,101.9375 55.375,99.75 L61.625,81 L63.1875,81 C66.625,81 76,80.375 83.1875,73.8125 C87.25,70.0625 90.0625,65.0625 91.625,59.125 L101.625,59.125 C104.75,59.125 107.25,56.625 107.25,53.5 L107.25,51 L132.5625,51 C134.125,51 135.375,50.375 136.625,49.4375 C137.5625,48.5 138.1875,46.9375 138.1875,45.375 L138.1875,29.4375 C138.1875,26.625 136,24.125 132.875,23.8125 C132.875,22.5625 131,21 129.125,21 L129.125,21 Z M63.1875,74.75 L68.5,59.125 L85.0625,59.125 C83.8125,62.5625 81.625,65.6875 79.125,68.1875 C73.5,72.875 66.9375,74.4375 63.1875,74.75 Z" id="形状" fill="#696774" fill-rule="nonzero"></path>
        <path d="M130.6875,42.5625 L98.5,42.5625 L98.5,51.3125 L62.875,51.3125 L60.6875,56.625 L56.9375,67.5625 L52.25,81.9375 L47.5625,96.3125 L30.375,96.3125 L41.625,62.5625 L44.125,54.75 L38.8125,51.9375 L38.8125,34.75 C38.8125,33.8125 39.4375,32.25 40.375,32.25 L130.6875,32.25 L130.6875,42.5625 Z" id="矩形-2" fill="#F0F1F3"></path>
    </g>
</svg>