<?xml version="1.0" encoding="UTF-8"?>
<svg width="207px" height="114px" viewBox="0 0 207 114" version="1.1" xmlns="http://www.w3.org/2000/svg" xmlns:xlink="http://www.w3.org/1999/xlink">
    <!-- Generator: Sketch 58 (84663) - https://sketch.com -->
    <title>hat_white</title>
    <desc>Created with Sketch.</desc>
    <g id="页面-1" stroke="none" stroke-width="1" fill="none" fill-rule="evenodd">
        <g id="hat_white" transform="translate(111.500000, 67.500000) rotate(32.000000) translate(-111.500000, -67.500000) translate(23.000000, -15.000000)">
            <g id="帽子" transform="translate(0.500000, 0.968750)" fill="#3D71FF">
                <path d="M63.6523437,108.203125 C60.234375,108.203125 57.0898437,108.007812 54.375,107.636719 C47.34375,106.679688 45.6445312,104.84375 44.9414062,103.359375 C40.0195312,92.8125 37.2460937,82.421875 36.71875,72.4804688 C36.2109375,63.0273438 37.734375,53.984375 41.2109375,45.5859375 C44.53125,37.6171875 49.609375,30.3125 56.2890625,23.90625 C62.7148437,17.734375 70.5273438,12.5 79.5117188,8.30078125 L80.7421875,10.9570312 L79.5117188,8.30078125 C88.4960938,4.12109375 97.5390625,1.50390625 106.386719,0.546875 C115.585938,-0.44921875 124.453125,0.3515625 132.695312,2.9296875 C141.367188,5.64453125 149.257812,10.2929688 156.191406,16.7578125 C163.457031,23.5546875 169.648437,32.34375 174.570312,42.890625 C175.273438,44.375 175.585938,46.8554688 171.796875,52.8710938 C169.296875,56.8554688 165.605469,61.40625 161.113281,66.0351562 C154.511719,72.8515625 140.390625,85.7226562 120.039062,95.1953125 C99.6875,104.6875 80.7617188,107.226562 71.2890625,107.910156 C68.6523438,108.105469 66.0742188,108.203125 63.6523437,108.203125 Z" id="形状"></path>
                <path d="M30.6445313,163.925781 C20.3125,163.925781 10.3320313,160.351562 2.36328125,153.75 C0.95703125,152.578125 0.09765625,150.859375 0.01953125,149.042969 C-0.05859375,147.207031 0.625,145.410156 1.93359375,144.121094 L45.703125,100.3125 C46.2890625,99.7265625 47.109375,99.4140625 47.9492188,99.453125 C48.75,99.4921875 49.4921875,99.8632812 50,100.46875 C51.0351563,101.230469 56.796875,102.695312 67.7929688,102.226562 C79.5507812,101.71875 92.5976563,99.1992188 104.550781,95.1171875 C105.820312,94.6875 107.207031,95.15625 107.949219,96.2695312 C108.691406,97.3828125 108.574219,98.8476563 107.695313,99.84375 L62.1875,150.78125 L62.0703125,150.898438 C54.1992187,158.769531 43.75,163.378906 32.6367188,163.867187" id="形状"></path>
            </g>
            <path d="M7.234375,149.527344 C22.6054688,162.261719 44.8320312,161.226562 58.9921875,147.125 L97.5273438,104 C87.6445312,106.578125 77.5078125,108.121094 68.1523438,108.433594 C62.9960938,108.609375 58.328125,108.394531 54.6367188,107.808594 C52.2148438,107.417969 50.515625,106.929688 49.3242188,106.421875 L7.1953125,148.550781 C7.01953125,148.726562 7,148.921875 7,149.058594" id="帽子_填充" fill="#FFFFFF"></path>
            <path d="M50.5816924,99.5975778 C52.0270049,100.476484 59.3121612,102.175703 73.2379424,100.964765 C88.3355987,99.6561716 104.234036,95.3788278 118.062161,88.9335153 C131.890286,82.4882028 145.38638,73.0546091 156.089505,62.3319528 C165.972317,52.4296091 169.351224,45.7499216 169.60513,44.0897653 C160.718411,25.2225778 147.534817,12.5858591 131.460599,7.54679657 C116.577786,2.87882782 99.6441924,4.65617157 82.4957549,12.6444528 C53.8043487,26.0428903 30.3863799,55.8866403 50.5816924,99.5975778 Z" id="帽子_填充2" fill="#FFFFFF" fill-rule="nonzero"></path>
        </g>
    </g>
</svg>