<?xml version="1.0" encoding="UTF-8"?>
<svg width="206px" height="114px" viewBox="0 0 206 114" version="1.1" xmlns="http://www.w3.org/2000/svg" xmlns:xlink="http://www.w3.org/1999/xlink">
    <!-- Generator: Sketch 58 (84663) - https://sketch.com -->
    <title>hat_yellow</title>
    <desc>Created with Sketch.</desc>
    <g id="页面-1" stroke="none" stroke-width="1" fill="none" fill-rule="evenodd">
        <g id="hat_yellow" transform="translate(111.000000, 68.000000) rotate(32.000000) translate(-111.000000, -68.000000) translate(23.000000, -14.000000)" fill-rule="nonzero">
            <g id="帽子" fill="#3D71FF">
                <path d="M63.6523437,108.203125 C60.234375,108.203125 57.0898437,108.007812 54.375,107.636719 C47.34375,106.679688 45.6445312,104.84375 44.9414062,103.359375 C40.0195312,92.8125 37.2460937,82.421875 36.71875,72.4804688 C36.2109375,63.0273438 37.734375,53.984375 41.2109375,45.5859375 C44.53125,37.6171875 49.609375,30.3125 56.2890625,23.90625 C62.7148437,17.734375 70.5273438,12.5 79.5117188,8.30078125 L80.7421875,10.9570312 L79.5117188,8.30078125 C88.4960938,4.12109375 97.5390625,1.50390625 106.386719,0.546875 C115.585938,-0.44921875 124.453125,0.3515625 132.695312,2.9296875 C141.367188,5.64453125 149.257812,10.2929688 156.191406,16.7578125 C163.457031,23.5546875 169.648437,32.34375 174.570312,42.890625 C175.273438,44.375 175.585938,46.8554688 171.796875,52.8710938 C169.296875,56.8554688 165.605469,61.40625 161.113281,66.0351562 C154.511719,72.8515625 140.390625,85.7226562 120.039062,95.1953125 C99.6875,104.6875 80.7617188,107.226562 71.2890625,107.910156 C68.6523438,108.105469 66.0742188,108.203125 63.6523437,108.203125 Z" id="形状"></path>
                <path d="M30.6445313,163.925781 C20.3125,163.925781 10.3320313,160.351562 2.36328125,153.75 C0.95703125,152.578125 0.09765625,150.859375 0.01953125,149.042969 C-0.05859375,147.207031 0.625,145.410156 1.93359375,144.121094 L45.703125,100.3125 C46.2890625,99.7265625 47.109375,99.4140625 47.9492188,99.453125 C48.75,99.4921875 49.4921875,99.8632812 50,100.46875 C51.0351563,101.230469 56.796875,102.695312 67.7929688,102.226562 C79.5507812,101.71875 92.5976563,99.1992188 104.550781,95.1171875 C105.820312,94.6875 107.207031,95.15625 107.949219,96.2695312 C108.691406,97.3828125 108.574219,98.8476563 107.695313,99.84375 L62.1875,150.78125 L62.0703125,150.898438 C54.1992187,158.769531 43.75,163.378906 32.6367188,163.867187" id="形状"></path>
            </g>
            <path d="M7.1343233,148.240456 C22.3024828,160.738642 44.1851894,159.698404 58.1193505,145.823094 L95.5619202,103.920817 C86.1117935,106.274035 76.5238715,107.668788 67.6693793,107.964553 C62.4786,108.141512 57.7808539,107.924538 54.0571025,107.333464 C51.9329364,106.990857 50.2431755,106.556189 48.9424062,106.042044 L7.04886589,147.935585 C7.03038431,147.954066 7.01838848,147.971474 7.01090921,147.993628 L7.1343233,148.240456 Z" id="帽子_填充" stroke="#979797" fill="#FBD769"></path>
            <path d="M50.0816924,98.6288278 C51.5270049,99.5077341 58.8121612,101.206953 72.7379424,99.9960153 C87.8355987,98.6874216 103.734036,94.4100778 117.562161,87.9647653 C131.390286,81.5194528 144.88638,72.0858591 155.589505,61.3632028 C165.472317,51.4608591 168.851224,44.7811716 169.10513,43.1210153 C160.218411,24.2538278 147.034817,11.6171091 130.960599,6.57804657 C116.077786,1.91007782 99.1441924,3.68742157 81.9957549,11.6757028 C53.3043487,25.0741403 29.8863799,54.9178903 50.0816924,98.6288278 Z" id="帽子_填充2" fill="#FBD769"></path>
        </g>
    </g>
</svg>