<?xml version="1.0" encoding="UTF-8"?>
<svg width="172px" height="111px" viewBox="0 0 172 111" version="1.1" xmlns="http://www.w3.org/2000/svg" xmlns:xlink="http://www.w3.org/1999/xlink">
    <!-- Generator: Sketch 58 (84663) - https://sketch.com -->
    <title>shoes</title>
    <desc>Created with Sketch.</desc>
    <g id="页面-1" stroke="none" stroke-width="1" fill="none" fill-rule="evenodd">
        <g id="shoes" transform="translate(0.726562, 0.000000)">
            <g id="鞋子-(1)" transform="translate(57.273438, 0.000000)">
                <path d="M104.082031,61.1914062 C98.2617188,55.3710937 90.5273438,52.1679687 82.2851562,52.1679687 L69.2773438,52.1679687 L69.2773438,20.5273437 L72.0117188,20.5273437 C73.90625,20.5273437 75.4296875,18.984375 75.4296875,17.109375 L75.4296875,3.41796875 C75.4296875,1.5234375 73.8867188,-1.13686838e-13 72.0117188,-1.13686838e-13 L3.515625,-1.13686838e-13 C1.62109375,-1.13686838e-13 0.09765625,1.54296875 0.09765625,3.41796875 L0.09765625,17.109375 C0.09765625,19.0039062 1.640625,20.5273437 3.515625,20.5273437 L6.25,20.5273437 L6.25,103.554687 C6.25,105.449219 7.79296875,106.972656 9.66796875,106.972656 L109.667969,106.972656 C111.5625,106.972656 113.086289,105.429687 113.086289,103.554687 L113.086289,82.9882812 C113.125,74.765625 109.902344,67.0117187 104.082031,61.1914062 Z" id="路径" fill="#000000" fill-rule="nonzero"></path>
                <polygon id="路径" fill="#F0C275" fill-rule="nonzero" points="6.953125 6.81640625 68.59375 6.81640625 68.59375 13.671875 6.953125 13.671875"></polygon>
                <path d="M82.2851562,59.0234375 C95.5078125,59.0234375 106.25,69.7851562 106.25,82.9882813 L106.25,87.7734375 L13.0859375,87.7734375 L13.0859375,20.5273438 L62.4023437,20.5273438 L62.4023437,55.6054688 C62.4023437,57.5 63.9453125,59.0234375 65.8203125,59.0234375 L82.2851562,59.0234375 Z" id="路径" fill="#F3A459" fill-rule="nonzero"></path>
                <polygon id="路径" fill="#EE7E32" fill-rule="nonzero" points="13.1054688 94.6289062 106.269531 94.6289062 106.269531 100.117188 13.1054688 100.117188"></polygon>
                <path d="M47.2265625,25.8203125 L64.453125,25.8203125 L64.453125,32.6757813 L47.2265625,32.6757813 L47.2265625,25.8203125 Z M47.2265625,38.6523438 L64.453125,38.6523438 L64.453125,45.5078125 L47.2265625,45.5078125 L47.2265625,38.6523438 Z" id="形状" fill="#000000" fill-rule="nonzero"></path>
            </g>
            <g id="鞋子-(1)" transform="translate(0.000000, 3.640625)">
                <path d="M104.082031,61.1914062 C98.2617188,55.3710937 90.5273438,52.1679687 82.2851562,52.1679687 L69.2773437,52.1679687 L69.2773437,20.5273437 L72.0117187,20.5273437 C73.90625,20.5273437 75.4296875,18.984375 75.4296875,17.109375 L75.4296875,3.41796875 C75.4296875,1.5234375 73.8867187,-1.13686838e-13 72.0117187,-1.13686838e-13 L3.515625,-1.13686838e-13 C1.62109375,-1.13686838e-13 0.09765625,1.54296875 0.09765625,3.41796875 L0.09765625,17.109375 C0.09765625,19.0039062 1.640625,20.5273437 3.515625,20.5273437 L6.25,20.5273437 L6.25,103.554687 C6.25,105.449219 7.79296875,106.972656 9.66796875,106.972656 L109.667969,106.972656 C111.5625,106.972656 113.086289,105.429687 113.086289,103.554687 L113.086289,82.9882812 C113.125,74.765625 109.902344,67.0117187 104.082031,61.1914062 Z" id="路径" fill="#000000" fill-rule="nonzero"></path>
                <polygon id="路径" fill="#F0C275" fill-rule="nonzero" points="6.953125 6.81640625 68.59375 6.81640625 68.59375 13.671875 6.953125 13.671875"></polygon>
                <path d="M82.2851562,59.0234375 C95.5078125,59.0234375 106.25,69.7851563 106.25,82.9882813 L106.25,87.7734375 L13.0859375,87.7734375 L13.0859375,20.5273438 L62.4023437,20.5273438 L62.4023437,55.6054688 C62.4023437,57.5 63.9453125,59.0234375 65.8203125,59.0234375 L82.2851562,59.0234375 Z" id="路径" fill="#F3A459" fill-rule="nonzero"></path>
                <polygon id="路径" fill="#EE7E32" fill-rule="nonzero" points="13.1054688 94.6289062 106.269531 94.6289062 106.269531 100.117188 13.1054688 100.117188"></polygon>
                <path d="M47.2265625,25.8203125 L64.453125,25.8203125 L64.453125,32.6757812 L47.2265625,32.6757812 L47.2265625,25.8203125 Z M47.2265625,38.6523437 L64.453125,38.6523437 L64.453125,45.5078125 L47.2265625,45.5078125 L47.2265625,38.6523437 Z" id="形状" fill="#000000" fill-rule="nonzero"></path>
            </g>
        </g>
    </g>
</svg>